<svg width="208" height="88" viewBox="0 0 208 88" fill="none" xmlns="http://www.w3.org/2000/svg">
<g clip-path="url(#clip0_54_15)">
<path d="M62.2556 20.6803H76.1853C79.9284 20.6803 82.9478 21.7715 85.2435 23.9541C87.5392 26.1366 88.687 29.0082 88.687 32.5687C88.69 34.894 88.1093 37.1829 86.9983 39.2253C85.8743 41.323 84.0756 42.9798 81.8934 43.9278C79.6185 44.9658 77.673 45.5043 76.0569 45.5432L70.9675 45.6678V61.4334H62.2556V20.6803ZM70.8469 28.0064V38.4351H74.2632C75.6749 38.4229 77.0252 37.8561 78.0231 36.8571C79.021 35.858 79.5865 34.5066 79.5977 33.0942C79.6334 32.3572 79.4903 31.6225 79.1807 30.9528C78.871 30.2831 78.404 29.6982 77.8195 29.2482C76.6393 28.3373 74.9635 27.8818 72.7924 27.8818L70.8469 28.0064Z" fill="white"/>
<path d="M98.2899 20.7036H121.219V28.7733H107.068V36.9987H121.219V44.9437H107.068V53.3871H121.219V61.4568H98.2899V20.7036Z" fill="white"/>
<path d="M130.99 20.7036H144.41C148.487 20.7036 151.712 21.778 154.083 23.9268C156.454 26.0756 157.64 28.9822 157.643 32.6466C157.606 34.9131 157.053 37.1415 156.028 39.163C154.944 41.4182 152.94 43.1855 150.017 44.4649L161.413 61.4568H151.308L140.764 45.6873H139.772V61.4568H130.99V20.7036ZM139.834 27.9636V38.5791H141.733C146.321 38.5791 148.615 36.7067 148.612 32.9619C148.634 32.2538 148.483 31.5511 148.171 30.9152C147.859 30.2793 147.396 29.7296 146.822 29.3144C145.629 28.4164 143.974 27.9662 141.857 27.9636H139.834Z" fill="white"/>
<path d="M184.604 20.7036H191.405L208 61.4568H199.164L195.903 53.4494H180.273L177.078 61.4568H168.289L184.604 20.7036ZM188.004 34.0479L183.214 46.0765H192.895L188.004 34.0479Z" fill="white"/>
<path d="M80.0841 72.4849H81.4576V76.3582H86.2708V72.4849H87.6326V82.5594H86.2708V77.7207H81.4576V82.5594H80.0841V72.4849Z" fill="white"/>
<path d="M96.8075 72.0995L101.554 82.5594H100.115L98.9475 79.9824H94.6674L93.5001 82.5594H92.0721L96.8075 72.0995ZM96.8075 75.241L95.1966 78.834H98.4417L96.8075 75.241Z" fill="white"/>
<path d="M105.986 72.084L113.43 79.7371V72.4849H114.807V83.0265L107.36 75.4045V82.5594H105.986V72.084Z" fill="white"/>
<path d="M119.679 77.4638C119.672 76.76 119.815 76.0628 120.098 75.4185C120.381 74.7743 120.798 74.1976 121.321 73.7267C121.846 73.2161 122.467 72.8146 123.148 72.5454C123.829 72.2761 124.557 72.1444 125.289 72.158C126.009 72.1446 126.724 72.2755 127.392 72.5429C128.061 72.8103 128.669 73.2089 129.18 73.7151C129.698 74.1867 130.111 74.7622 130.392 75.4041C130.673 76.0459 130.816 76.7398 130.811 77.4404C130.824 78.16 130.688 78.8746 130.411 79.5388C130.134 80.2029 129.721 80.802 129.2 81.2981C128.14 82.3136 126.73 82.8805 125.262 82.8805C123.795 82.8805 122.384 82.3136 121.325 81.2981C120.8 80.8078 120.383 80.2138 120.099 79.5538C119.816 78.8937 119.673 78.1821 119.679 77.4638ZM129.321 77.5261C129.33 76.9997 129.228 76.4774 129.021 75.9935C128.813 75.5097 128.506 75.0754 128.118 74.7194C127.726 74.3432 127.263 74.0484 126.756 73.852C126.249 73.6555 125.708 73.5614 125.165 73.5749C124.634 73.5673 124.108 73.6669 123.616 73.8675C123.125 74.0682 122.679 74.3658 122.305 74.7427C121.925 75.0997 121.623 75.5318 121.419 76.0116C121.215 76.4914 121.112 77.0085 121.118 77.5299C121.11 78.0553 121.214 78.5764 121.424 79.058C121.634 79.5395 121.945 79.9703 122.336 80.321C123.145 81.081 124.219 81.4921 125.328 81.4655C125.851 81.4716 126.37 81.3713 126.853 81.1705C127.336 80.9697 127.773 80.6728 128.138 80.2977C128.516 79.943 128.817 79.5135 129.02 79.0363C129.224 78.5592 129.326 78.0448 129.321 77.5261Z" fill="white"/>
<path d="M135.795 72.4849H137.153V82.5594H135.795V72.4849Z" fill="white"/>
<path d="M7.84812 45.8546C7.84759 42.7468 8.67644 39.6952 10.2491 37.0151C11.8217 34.3349 14.081 32.1234 16.7937 30.6091C19.5063 29.0947 22.5739 28.3324 25.6796 28.4008C28.7852 28.4693 31.8163 29.3661 34.4597 30.9985C37.103 32.6309 39.2628 34.9398 40.7159 37.6867C42.169 40.4335 42.8627 43.5187 42.7253 46.6235C42.588 49.7282 41.6246 52.74 39.9346 55.3477C38.2446 57.9554 35.8894 60.0643 33.1122 61.4568H45.077C48.0601 57.732 49.9307 53.2397 50.473 48.4977C51.0154 43.7556 50.2075 38.9568 48.1425 34.6541C46.0775 30.3514 42.8394 26.7199 38.8013 24.1782C34.7632 21.6365 30.0894 20.2879 25.3186 20.2879C20.5478 20.2879 15.874 21.6365 11.8359 24.1782C7.79783 26.7199 4.5597 30.3514 2.49468 34.6541C0.429661 38.9568 -0.378211 43.7556 0.164157 48.4977C0.706525 53.2397 2.57706 57.732 5.56022 61.4568H17.4744C14.5813 60.0053 12.1487 57.7774 10.4487 55.022C8.74873 52.2667 7.8483 49.0926 7.84812 45.8546Z" fill="white"/>
<path d="M117.55 5.2027C115.123 6.42444 112.443 7.05911 109.726 7.05565C107.012 7.05743 104.336 6.4228 101.912 5.2027H89.9944C92.3646 8.16742 95.3712 10.5606 98.7915 12.2048C102.212 13.849 105.958 14.7021 109.753 14.701C113.548 14.7044 117.295 13.8522 120.715 12.2078C124.136 10.5635 127.142 8.16912 129.511 5.2027H117.55Z" fill="white"/>
</g>
<defs>
<clipPath id="clip0_54_15">
<rect width="208" height="88" fill="white"/>
</clipPath>
</defs>
</svg>
